<?xml version="1.0" standalone="no"?>
<svg xmlns="http://www.w3.org/2000/svg" xmlns:xlink="http://www.w3.org/1999/xlink" width="1264pt" height="1121pt" viewBox="0.00 0.00 1263.97 1121.00">
<g id="graph0" class="graph" transform="translate(4,1117) scale(1)" data-name="G">

<polygon fill="#2e3e56" stroke="none" points="-4,4 -4,-1117 1259.97,-1117 1259.97,4 -4,4" style=""/>
<g id="clust1" class="cluster" data-name="clusterSilicaFactory">

<path fill="#445773" stroke="#445773" d="M20,-317C20,-317 1232.23,-317 1232.23,-317 1238.23,-317 1244.23,-323 1244.23,-329 1244.23,-329 1244.23,-956 1244.23,-956 1244.23,-962 1238.23,-968 1232.23,-968 1232.23,-968 20,-968 20,-968 14,-968 8,-962 8,-956 8,-956 8,-329 8,-329 8,-323 14,-317 20,-317" style=""/>
<text text-anchor="middle" x="626.11" y="-951.4" font-family="Times,serif" font-size="14.00" fill="#f0f0f0" style="">SilicaFactory</text>
</g>
<g id="clust2" class="cluster" data-name="clusterIOracle">

<path fill="#3b4b63" stroke="#e8726d" stroke-dasharray="5,2" d="M1070.67,-178C1070.67,-178 1235.97,-178 1235.97,-178 1241.97,-178 1247.97,-184 1247.97,-190 1247.97,-190 1247.97,-297 1247.97,-297 1247.97,-303 1241.97,-309 1235.97,-309 1235.97,-309 1070.67,-309 1070.67,-309 1064.67,-309 1058.67,-303 1058.67,-297 1058.67,-297 1058.67,-190 1058.67,-190 1058.67,-184 1064.67,-178 1070.67,-178" style=""/>
<text text-anchor="middle" x="1153.32" y="-292.4" font-family="Times,serif" font-size="14.00" fill="#f0f0f0" style="">IOracle</text>
</g>
<g id="clust3" class="cluster" data-name="clusterIOracleEthStaking">

<path fill="#3b4b63" stroke="#e8726d" stroke-dasharray="5,2" d="M1070.67,-39C1070.67,-39 1235.97,-39 1235.97,-39 1241.97,-39 1247.97,-45 1247.97,-51 1247.97,-51 1247.97,-158 1247.97,-158 1247.97,-164 1241.97,-170 1235.97,-170 1235.97,-170 1070.67,-170 1070.67,-170 1064.67,-170 1058.67,-164 1058.67,-158 1058.67,-158 1058.67,-51 1058.67,-51 1058.67,-45 1064.67,-39 1070.67,-39" style=""/>
<text text-anchor="middle" x="1153.32" y="-153.4" font-family="Times,serif" font-size="14.00" fill="#f0f0f0" style="">IOracleEthStaking</text>
</g>
<g id="clust4" class="cluster" data-name="clusterClones">

<path fill="#3b4b63" stroke="#e8726d" stroke-dasharray="5,2" d="M837.21,-232C837.21,-232 893.11,-232 893.11,-232 899.11,-232 905.11,-238 905.11,-244 905.11,-244 905.11,-297 905.11,-297 905.11,-303 899.11,-309 893.11,-309 893.11,-309 837.21,-309 837.21,-309 831.21,-309 825.21,-303 825.21,-297 825.21,-297 825.21,-244 825.21,-244 825.21,-238 831.21,-232 837.21,-232" style=""/>
<text text-anchor="middle" x="865.16" y="-292.4" font-family="Times,serif" font-size="14.00" fill="#f0f0f0" style="">Clones</text>
</g>
<g id="clust5" class="cluster" data-name="clusterISilicaV2_1">

<path fill="#3b4b63" stroke="#e8726d" stroke-dasharray="5,2" d="M809.85,-93C809.85,-93 920.46,-93 920.46,-93 926.46,-93 932.46,-99 932.46,-105 932.46,-105 932.46,-212 932.46,-212 932.46,-218 926.46,-224 920.46,-224 920.46,-224 809.85,-224 809.85,-224 803.85,-224 797.85,-218 797.85,-212 797.85,-212 797.85,-105 797.85,-105 797.85,-99 803.85,-93 809.85,-93" style=""/>
<text text-anchor="middle" x="865.16" y="-207.4" font-family="Times,serif" font-size="14.00" fill="#f0f0f0" style="">ISilicaV2_1</text>
</g>
<g id="clust6" class="cluster" data-name="clusterSafeERC20">

<path fill="#3b4b63" stroke="#e8726d" stroke-dasharray="5,2" d="M788.94,-8C788.94,-8 941.37,-8 941.37,-8 947.37,-8 953.37,-14 953.37,-20 953.37,-20 953.37,-73 953.37,-73 953.37,-79 947.37,-85 941.37,-85 941.37,-85 788.94,-85 788.94,-85 782.94,-85 776.94,-79 776.94,-73 776.94,-73 776.94,-20 776.94,-20 776.94,-14 782.94,-8 788.94,-8" style=""/>
<text text-anchor="middle" x="865.16" y="-68.4" font-family="Times,serif" font-size="14.00" fill="#f0f0f0" style="">SafeERC20</text>
</g>
<g id="clust7" class="cluster" data-name="cluster_01">

<polygon fill="#2e3e56" stroke="black" points="88.14,-976 88.14,-1105 537.96,-1105 537.96,-976 88.14,-976" style=""/>
<text text-anchor="middle" x="313.05" y="-1088.4" font-family="Times,serif" font-size="14.00" style="">Legend</text>
</g>
<!-- SilicaFactory.onlySwapProxy -->
<g id="node1" class="node" pointer-events="visible" data-name="SilicaFactory.onlySwapProxy">

<polygon fill="#edad56" stroke="#1bc6a6" stroke-width="3" points="944.1,-757.54 944.1,-772.46 897.86,-783 832.46,-783 786.21,-772.46 786.21,-757.54 832.46,-747 897.86,-747 944.1,-757.54" style=""/>
<polygon fill="none" stroke="#1bc6a6" stroke-width="3" points="948.12,-754.36 948.12,-775.64 898.31,-787 832,-787 782.2,-775.64 782.2,-754.36 832,-743 898.31,-743 948.12,-754.36" style=""/>
<text text-anchor="middle" x="865.16" y="-760.8" font-family="Times,serif" font-size="14.00" style="">onlySwapProxy</text>
</g>
<!-- SilicaFactory.address -->
<g id="node16" class="node" pointer-events="visible" data-name="SilicaFactory.address">

<ellipse fill="#edad56" stroke="#edad56" stroke-width="3" cx="1153.32" cy="-716" rx="40" ry="18" style=""/>
<text text-anchor="middle" x="1153.32" y="-711.8" font-family="Times,serif" font-size="14.00" style="">address</text>
</g>
<!-- SilicaFactory.onlySwapProxy&#45;&gt;SilicaFactory.address -->
<g id="edge1" class="edge" data-name="SilicaFactory.onlySwapProxy-&gt;SilicaFactory.address">

<path fill="none" stroke="#1bc6a6" stroke-width="2" d="M943.22,-751.8C993.59,-743.18 1057.93,-732.16 1101.86,-724.64" style=""/>
<polygon fill="#1bc6a6" stroke="#1bc6a6" stroke-width="2" points="1102.26,-728.12 1111.53,-722.98 1101.08,-721.22 1102.26,-728.12" style=""/>
</g>
<!-- SilicaFactory.Unauthorized -->
<g id="node17" class="node" pointer-events="visible" data-name="SilicaFactory.Unauthorized">

<ellipse fill="#edad56" stroke="#edad56" stroke-width="3" cx="1153.32" cy="-770" rx="63.69" ry="18" style=""/>
<text text-anchor="middle" x="1153.32" y="-765.8" font-family="Times,serif" font-size="14.00" style="">Unauthorized</text>
</g>
<!-- SilicaFactory.onlySwapProxy&#45;&gt;SilicaFactory.Unauthorized -->
<g id="edge2" class="edge" data-name="SilicaFactory.onlySwapProxy-&gt;SilicaFactory.Unauthorized">

<path fill="none" stroke="#1bc6a6" stroke-width="2" d="M949.31,-766.45C989.19,-767.15 1036.66,-767.98 1075.66,-768.66" style=""/>
<polygon fill="#1bc6a6" stroke="#1bc6a6" stroke-width="2" points="1075.45,-772.16 1085.51,-768.83 1075.58,-765.16 1075.45,-772.16" style=""/>
</g>
<!-- SilicaFactory.&lt;Constructor&gt; -->
<g id="node2" class="node" pointer-events="visible" data-name="SilicaFactory.&lt;Constructor&gt;">

<ellipse fill="#ff9797" stroke="#ff9797" stroke-width="3" cx="865.16" cy="-667" rx="67.55" ry="18" style=""/>
<text text-anchor="middle" x="865.16" y="-662.8" font-family="Times,serif" font-size="14.00" style="">&lt;Constructor&gt;</text>
</g>
<!-- SilicaFactory.&lt;Constructor&gt;&#45;&gt;SilicaFactory.address -->
<g id="edge3" class="edge" data-name="SilicaFactory.&lt;Constructor&gt;-&gt;SilicaFactory.address">

<path fill="none" stroke="#1bc6a6" stroke-width="2" d="M930.38,-660.77C988.07,-665.7 1070.63,-680.96 1117.08,-696.1" style=""/>
<polygon fill="#1bc6a6" stroke="#1bc6a6" stroke-width="2" points="1115.72,-699.33 1126.32,-699.35 1118.05,-692.73 1115.72,-699.33" style=""/>
</g>
<!-- SilicaFactory.&lt;Constructor&gt;&#45;&gt;SilicaFactory.address -->
<g id="edge4" class="edge" data-name="SilicaFactory.&lt;Constructor&gt;-&gt;SilicaFactory.address">

<path fill="none" stroke="#1bc6a6" stroke-width="2" d="M931.45,-672.41C984.68,-680.03 1058.54,-692.89 1105.89,-702.91" style=""/>
<polygon fill="#1bc6a6" stroke="#1bc6a6" stroke-width="2" points="1105.02,-706.31 1115.54,-705.02 1106.51,-699.47 1105.02,-706.31" style=""/>
</g>
<!-- SilicaFactory.&lt;Constructor&gt;&#45;&gt;SilicaFactory.address -->
<g id="edge5" class="edge" data-name="SilicaFactory.&lt;Constructor&gt;-&gt;SilicaFactory.address">

<path fill="none" stroke="#1bc6a6" stroke-width="2" d="M914.7,-680.53C966.01,-691.3 1046.66,-705.17 1099.52,-712.33" style=""/>
<polygon fill="#1bc6a6" stroke="#1bc6a6" stroke-width="2" points="1098.96,-715.79 1109.33,-713.61 1099.86,-708.85 1098.96,-715.79" style=""/>
</g>
<!-- SilicaFactory.&lt;Constructor&gt;&#45;&gt;SilicaFactory.address -->
<g id="edge7" class="edge" data-name="SilicaFactory.&lt;Constructor&gt;-&gt;SilicaFactory.address">

<path fill="none" stroke="#1bc6a6" stroke-width="2" d="M894.64,-684.61C943.14,-701.78 1042.33,-719.79 1102.51,-723.27" style=""/>
<polygon fill="#1bc6a6" stroke="#1bc6a6" stroke-width="2" points="1102.3,-726.76 1112.43,-723.68 1102.58,-719.77 1102.3,-726.76" style=""/>
</g>
<!-- SilicaFactory.IOracleRegistry -->
<g id="node18" class="node" pointer-events="visible" data-name="SilicaFactory.IOracleRegistry">

<ellipse fill="#edad56" stroke="#edad56" stroke-width="3" cx="1153.32" cy="-554" rx="72.92" ry="18" style=""/>
<text text-anchor="middle" x="1153.32" y="-549.8" font-family="Times,serif" font-size="14.00" style="">IOracleRegistry</text>
</g>
<!-- SilicaFactory.&lt;Constructor&gt;&#45;&gt;SilicaFactory.IOracleRegistry -->
<g id="edge6" class="edge" data-name="SilicaFactory.&lt;Constructor&gt;-&gt;SilicaFactory.IOracleRegistry">

<path fill="none" stroke="#1bc6a6" stroke-width="2" d="M933.43,-669.87C965.67,-668 1003.15,-660.71 1030.67,-640 1053.86,-622.55 1036.55,-599.79 1058.67,-581 1064.37,-576.16 1070.9,-572.18 1077.79,-568.92" style=""/>
<polygon fill="#1bc6a6" stroke="#1bc6a6" stroke-width="2" points="1078.92,-572.24 1086.86,-565.22 1076.28,-565.76 1078.92,-572.24" style=""/>
</g>
<!-- SilicaFactory.ISwapProxy -->
<g id="node19" class="node" pointer-events="visible" data-name="SilicaFactory.ISwapProxy">

<ellipse fill="#edad56" stroke="#edad56" stroke-width="3" cx="1153.32" cy="-662" rx="58.57" ry="18" style=""/>
<text text-anchor="middle" x="1153.32" y="-657.8" font-family="Times,serif" font-size="14.00" style="">ISwapProxy</text>
</g>
<!-- SilicaFactory.&lt;Constructor&gt;&#45;&gt;SilicaFactory.ISwapProxy -->
<g id="edge8" class="edge" data-name="SilicaFactory.&lt;Constructor&gt;-&gt;SilicaFactory.ISwapProxy">

<path fill="none" stroke="#1bc6a6" stroke-width="2" d="M933.97,-665.82C978.2,-665.04 1035.84,-664.04 1080.79,-663.25" style=""/>
<polygon fill="#1bc6a6" stroke="#1bc6a6" stroke-width="2" points="1080.74,-666.75 1090.68,-663.08 1080.62,-659.75 1080.74,-666.75" style=""/>
</g>
<!-- SilicaFactory.getMiningSwapCollateralRequirement -->
<g id="node3" class="node" pointer-events="visible" data-name="SilicaFactory.getMiningSwapCollateralRequirement">

<ellipse fill="#ffbdb9" stroke="#ffbdb9" stroke-width="3" cx="502.96" cy="-841" rx="160.87" ry="18" style=""/>
<text text-anchor="middle" x="502.96" y="-836.8" font-family="Times,serif" font-size="14.00" style="">getMiningSwapCollateralRequirement</text>
</g>
<!-- SilicaFactory._getOracleData -->
<g id="node7" class="node" pointer-events="visible" data-name="SilicaFactory._getOracleData">

<ellipse fill="#edad56" stroke="#edad56" stroke-width="3" cx="865.16" cy="-613" rx="71.75" ry="18" style=""/>
<text text-anchor="middle" x="865.16" y="-608.8" font-family="Times,serif" font-size="14.00" style="">_getOracleData</text>
</g>
<!-- SilicaFactory.getMiningSwapCollateralRequirement&#45;&gt;SilicaFactory._getOracleData -->
<g id="edge9" class="edge" data-name="SilicaFactory.getMiningSwapCollateralRequirement-&gt;SilicaFactory._getOracleData">

<path fill="none" stroke="#1bc6a6" stroke-width="2" d="M516.37,-821.59C543.84,-780.45 614.14,-684.59 699.64,-640 724.01,-627.29 752.94,-620.29 779.69,-616.52" style=""/>
<polygon fill="#1bc6a6" stroke="#1bc6a6" stroke-width="2" points="780.12,-620 789.61,-615.29 779.26,-613.05 780.12,-620" style=""/>
</g>
<!-- SilicaFactory._getNumDeposits -->
<g id="node9" class="node" pointer-events="visible" data-name="SilicaFactory._getNumDeposits">

<ellipse fill="#edad56" stroke="#edad56" stroke-width="3" cx="1153.32" cy="-895" rx="80.55" ry="18" style=""/>
<text text-anchor="middle" x="1153.32" y="-890.8" font-family="Times,serif" font-size="14.00" style="">_getNumDeposits</text>
</g>
<!-- SilicaFactory.getMiningSwapCollateralRequirement&#45;&gt;SilicaFactory._getNumDeposits -->
<g id="edge10" class="edge" data-name="SilicaFactory.getMiningSwapCollateralRequirement-&gt;SilicaFactory._getNumDeposits">

<path fill="none" stroke="#1bc6a6" stroke-width="2" d="M539.49,-859.95C577.77,-879.21 641.1,-907.76 699.64,-919 844.13,-946.73 884.24,-933.31 1030.67,-919 1047.57,-917.35 1065.61,-914.44 1082.48,-911.2" style=""/>
<polygon fill="#1bc6a6" stroke="#1bc6a6" stroke-width="2" points="1083.02,-914.66 1092.14,-909.26 1081.65,-907.79 1083.02,-914.66" style=""/>
</g>
<!-- SilicaFactory.getEthStakingCollateralRequirement -->
<g id="node4" class="node" pointer-events="visible" data-name="SilicaFactory.getEthStakingCollateralRequirement">

<ellipse fill="#ffbdb9" stroke="#ffbdb9" stroke-width="3" cx="502.96" cy="-635" rx="153.92" ry="18" style=""/>
<text text-anchor="middle" x="502.96" y="-630.8" font-family="Times,serif" font-size="14.00" style="">getEthStakingCollateralRequirement</text>
</g>
<!-- SilicaFactory._getOracleEthStakingData -->
<g id="node8" class="node" pointer-events="visible" data-name="SilicaFactory._getOracleEthStakingData">

<ellipse fill="#edad56" stroke="#edad56" stroke-width="3" cx="865.16" cy="-559" rx="114.58" ry="18" style=""/>
<text text-anchor="middle" x="865.16" y="-554.8" font-family="Times,serif" font-size="14.00" style="">_getOracleEthStakingData</text>
</g>
<!-- SilicaFactory.getEthStakingCollateralRequirement&#45;&gt;SilicaFactory._getOracleEthStakingData -->
<g id="edge11" class="edge" data-name="SilicaFactory.getEthStakingCollateralRequirement-&gt;SilicaFactory._getOracleEthStakingData">

<path fill="none" stroke="#1bc6a6" stroke-width="2" d="M568.43,-617.43C606.44,-607.43 655.57,-595.12 699.64,-586 720.73,-581.64 743.45,-577.53 765.09,-573.9" style=""/>
<polygon fill="#1bc6a6" stroke="#1bc6a6" stroke-width="2" points="765.39,-577.39 774.69,-572.31 764.25,-570.49 765.39,-577.39" style=""/>
</g>
<!-- SilicaFactory.getEthStakingCollateralRequirement&#45;&gt;SilicaFactory._getNumDeposits -->
<g id="edge12" class="edge" data-name="SilicaFactory.getEthStakingCollateralRequirement-&gt;SilicaFactory._getNumDeposits">

<path fill="none" stroke="#1bc6a6" stroke-width="2" d="M525.17,-654.05C558.45,-684.88 623.3,-748.85 663.64,-814 686.32,-850.63 663.97,-879.85 699.64,-904 728.88,-923.79 939.99,-911.37 1063.33,-902.21" style=""/>
<polygon fill="#1bc6a6" stroke="#1bc6a6" stroke-width="2" points="1063.36,-905.71 1073.06,-901.47 1062.83,-898.73 1063.36,-905.71" style=""/>
</g>
<!-- SilicaFactory._getMiningSwapCollateralRequirement -->
<g id="node5" class="node" pointer-events="visible" data-name="SilicaFactory._getMiningSwapCollateralRequirement">

<ellipse fill="#f2c383" stroke="#f2c383" stroke-width="3" cx="865.16" cy="-877" rx="165.53" ry="18" style=""/>
<text text-anchor="middle" x="865.16" y="-872.8" font-family="Times,serif" font-size="14.00" style="">_getMiningSwapCollateralRequirement</text>
</g>
<!-- SilicaFactory._getMiningSwapCollateralRequirement&#45;&gt;SilicaFactory._getNumDeposits -->
<g id="edge13" class="edge" data-name="SilicaFactory._getMiningSwapCollateralRequirement-&gt;SilicaFactory._getNumDeposits">

<path fill="none" stroke="#1bc6a6" stroke-width="2" d="M1012.17,-886.18C1028.86,-887.23 1045.49,-888.28 1061.16,-889.27" style=""/>
<polygon fill="#1bc6a6" stroke="#1bc6a6" stroke-width="2" points="1060.86,-892.75 1071.06,-889.89 1061.3,-885.77 1060.86,-892.75" style=""/>
</g>
<!-- SilicaFactory._getEthStakingCollateralRequirement -->
<g id="node6" class="node" pointer-events="visible" data-name="SilicaFactory._getEthStakingCollateralRequirement">

<ellipse fill="#f2c383" stroke="#f2c383" stroke-width="3" cx="865.16" cy="-823" rx="158.57" ry="18" style=""/>
<text text-anchor="middle" x="865.16" y="-818.8" font-family="Times,serif" font-size="14.00" style="">_getEthStakingCollateralRequirement</text>
</g>
<!-- SilicaFactory._getEthStakingCollateralRequirement&#45;&gt;SilicaFactory._getNumDeposits -->
<g id="edge14" class="edge" data-name="SilicaFactory._getEthStakingCollateralRequirement-&gt;SilicaFactory._getNumDeposits">

<path fill="none" stroke="#1bc6a6" stroke-width="2" d="M972.55,-837.39C992.02,-840.89 1012.06,-845.08 1030.67,-850 1054.06,-856.18 1079.24,-865.1 1100.59,-873.37" style=""/>
<polygon fill="#1bc6a6" stroke="#1bc6a6" stroke-width="2" points="1099.27,-876.61 1109.86,-877.03 1101.84,-870.1 1099.27,-876.61" style=""/>
</g>
<!-- SilicaFactory._getOracleData&#45;&gt;SilicaFactory.address -->
<g id="edge17" class="edge" data-name="SilicaFactory._getOracleData-&gt;SilicaFactory.address">

<path fill="none" stroke="#1bc6a6" stroke-width="2" d="M938.07,-611.43C968.92,-613.96 1003.93,-621.42 1030.67,-640 1051.27,-654.31 1038.95,-673.5 1058.67,-689 1070.71,-698.46 1085.94,-704.61 1100.6,-708.6" style=""/>
<polygon fill="#1bc6a6" stroke="#1bc6a6" stroke-width="2" points="1099.76,-712 1110.3,-710.89 1101.37,-705.19 1099.76,-712" style=""/>
</g>
<!-- SilicaFactory._getOracleData&#45;&gt;SilicaFactory.IOracleRegistry -->
<g id="edge16" class="edge" data-name="SilicaFactory._getOracleData-&gt;SilicaFactory.IOracleRegistry">

<path fill="none" stroke="#1bc6a6" stroke-width="2" d="M929.7,-604.01C960.34,-599.3 997.55,-593.06 1030.67,-586 1050.11,-581.86 1071.11,-576.61 1090.1,-571.58" style=""/>
<polygon fill="#1bc6a6" stroke="#1bc6a6" stroke-width="2" points="1090.89,-574.99 1099.64,-569.01 1089.08,-568.23 1090.89,-574.99" style=""/>
</g>
<!-- SilicaFactory.IOracle -->
<g id="node20" class="node" pointer-events="visible" data-name="SilicaFactory.IOracle">

<ellipse fill="#edad56" stroke="#edad56" stroke-width="3" cx="1153.32" cy="-608" rx="39.97" ry="18" style=""/>
<text text-anchor="middle" x="1153.32" y="-603.8" font-family="Times,serif" font-size="14.00" style="">IOracle</text>
</g>
<!-- SilicaFactory._getOracleData&#45;&gt;SilicaFactory.IOracle -->
<g id="edge15" class="edge" data-name="SilicaFactory._getOracleData-&gt;SilicaFactory.IOracle">

<path fill="none" stroke="#1bc6a6" stroke-width="2" d="M938,-611.74C988.18,-610.87 1054.05,-609.72 1099.45,-608.92" style=""/>
<polygon fill="#1bc6a6" stroke="#1bc6a6" stroke-width="2" points="1099.3,-612.43 1109.24,-608.75 1099.18,-605.43 1099.3,-612.43" style=""/>
</g>
<!-- IOracle.getLastIndexedDay -->
<g id="node26" class="node" pointer-events="visible" data-name="IOracle.getLastIndexedDay">

<ellipse fill="#edad56" stroke="#edad56" stroke-width="3" cx="1153.32" cy="-258" rx="86.8" ry="18" style=""/>
<text text-anchor="middle" x="1153.32" y="-253.8" font-family="Times,serif" font-size="14.00" style="">getLastIndexedDay</text>
</g>
<!-- SilicaFactory._getOracleData&#45;&gt;IOracle.getLastIndexedDay -->
<g id="edge18" class="edge" data-name="SilicaFactory._getOracleData-&gt;IOracle.getLastIndexedDay">

<path fill="none" stroke="white" stroke-width="2" d="M933.89,-619.69C967.66,-619.11 1006.37,-611.82 1030.67,-586 1072.47,-541.59 1025.71,-364.31 1058.67,-313 1067.44,-299.36 1080.88,-288.67 1094.88,-280.5" style=""/>
<polygon fill="white" stroke="white" stroke-width="2" points="1096.3,-283.71 1103.47,-275.9 1093,-277.53 1096.3,-283.71" style=""/>
</g>
<!-- IOracle.get -->
<g id="node27" class="node" pointer-events="visible" data-name="IOracle.get">

<ellipse fill="#edad56" stroke="#edad56" stroke-width="3" cx="1153.32" cy="-204" rx="27" ry="18" style=""/>
<text text-anchor="middle" x="1153.32" y="-199.8" font-family="Times,serif" font-size="14.00" style="">get</text>
</g>
<!-- SilicaFactory._getOracleData&#45;&gt;IOracle.get -->
<g id="edge19" class="edge" data-name="SilicaFactory._getOracleData-&gt;IOracle.get">

<path fill="none" stroke="white" stroke-width="2" d="M933.31,-619.94C967.34,-619.52 1006.48,-612.31 1030.67,-586 1084.23,-527.74 1008.64,-292.31 1058.67,-231 1071.54,-215.23 1092.98,-208.32 1112.1,-205.43" style=""/>
<polygon fill="white" stroke="white" stroke-width="2" points="1112.28,-208.93 1121.83,-204.34 1111.5,-201.97 1112.28,-208.93" style=""/>
</g>
<!-- SilicaFactory._getOracleEthStakingData&#45;&gt;SilicaFactory.address -->
<g id="edge22" class="edge" data-name="SilicaFactory._getOracleEthStakingData-&gt;SilicaFactory.address">

<path fill="none" stroke="#1bc6a6" stroke-width="2" d="M980.49,-560.51C998.95,-565.33 1016.6,-573.3 1030.67,-586 1065.89,-617.78 1025.38,-655.2 1058.67,-689 1069.62,-700.11 1084.82,-706.72 1099.8,-710.63" style=""/>
<polygon fill="#1bc6a6" stroke="#1bc6a6" stroke-width="2" points="1098.76,-713.99 1109.28,-712.68 1100.24,-707.15 1098.76,-713.99" style=""/>
</g>
<!-- SilicaFactory._getOracleEthStakingData&#45;&gt;SilicaFactory.IOracleRegistry -->
<g id="edge21" class="edge" data-name="SilicaFactory._getOracleEthStakingData-&gt;SilicaFactory.IOracleRegistry">

<path fill="none" stroke="#1bc6a6" stroke-width="2" d="M980.49,-557C1009.12,-556.5 1039.35,-555.97 1066.34,-555.5" style=""/>
<polygon fill="#1bc6a6" stroke="#1bc6a6" stroke-width="2" points="1066.35,-559 1076.28,-555.33 1066.22,-552 1066.35,-559" style=""/>
</g>
<!-- SilicaFactory.IOracleEthStaking -->
<g id="node21" class="node" pointer-events="visible" data-name="SilicaFactory.IOracleEthStaking">

<ellipse fill="#edad56" stroke="#edad56" stroke-width="3" cx="1153.32" cy="-500" rx="82.81" ry="18" style=""/>
<text text-anchor="middle" x="1153.32" y="-495.8" font-family="Times,serif" font-size="14.00" style="">IOracleEthStaking</text>
</g>
<!-- SilicaFactory._getOracleEthStakingData&#45;&gt;SilicaFactory.IOracleEthStaking -->
<g id="edge20" class="edge" data-name="SilicaFactory._getOracleEthStakingData-&gt;SilicaFactory.IOracleEthStaking">

<path fill="none" stroke="#1bc6a6" stroke-width="2" d="M953.11,-546.31C978.23,-542.21 1005.62,-537.34 1030.67,-532 1049.24,-528.04 1069.23,-523.08 1087.53,-518.26" style=""/>
<polygon fill="#1bc6a6" stroke="#1bc6a6" stroke-width="2" points="1088.21,-521.7 1096.96,-515.73 1086.4,-514.94 1088.21,-521.7" style=""/>
</g>
<!-- IOracleEthStaking.getLastIndexedDay -->
<g id="node28" class="node" pointer-events="visible" data-name="IOracleEthStaking.getLastIndexedDay">

<ellipse fill="#edad56" stroke="#edad56" stroke-width="3" cx="1153.32" cy="-119" rx="86.8" ry="18" style=""/>
<text text-anchor="middle" x="1153.32" y="-114.8" font-family="Times,serif" font-size="14.00" style="">getLastIndexedDay</text>
</g>
<!-- SilicaFactory._getOracleEthStakingData&#45;&gt;IOracleEthStaking.getLastIndexedDay -->
<g id="edge23" class="edge" data-name="SilicaFactory._getOracleEthStakingData-&gt;IOracleEthStaking.getLastIndexedDay">

<path fill="none" stroke="white" stroke-width="2" d="M980.89,-560.04C999.77,-555.06 1017.45,-546.39 1030.67,-532 1084.66,-473.24 1016.36,-241.66 1058.67,-174 1067.27,-160.25 1080.66,-149.53 1094.66,-141.36" style=""/>
<polygon fill="white" stroke="white" stroke-width="2" points="1096.08,-144.56 1103.26,-136.77 1092.79,-138.39 1096.08,-144.56" style=""/>
</g>
<!-- IOracleEthStaking.get -->
<g id="node29" class="node" pointer-events="visible" data-name="IOracleEthStaking.get">

<ellipse fill="#edad56" stroke="#edad56" stroke-width="3" cx="1153.32" cy="-65" rx="27" ry="18" style=""/>
<text text-anchor="middle" x="1153.32" y="-60.8" font-family="Times,serif" font-size="14.00" style="">get</text>
</g>
<!-- SilicaFactory._getOracleEthStakingData&#45;&gt;IOracleEthStaking.get -->
<g id="edge24" class="edge" data-name="SilicaFactory._getOracleEthStakingData-&gt;IOracleEthStaking.get">

<path fill="none" stroke="white" stroke-width="2" d="M980.64,-560.31C999.66,-555.33 1017.46,-546.59 1030.67,-532 1096.43,-459.37 997.31,-168.38 1058.67,-92 1071.5,-76.03 1093.14,-69.13 1112.39,-66.29" style=""/>
<polygon fill="white" stroke="white" stroke-width="2" points="1112.62,-69.78 1122.18,-65.23 1111.87,-62.82 1112.62,-69.78" style=""/>
</g>
<!-- SilicaFactory.createSilicaV2_1 -->
<g id="node10" class="node" pointer-events="visible" data-name="SilicaFactory.createSilicaV2_1">

<ellipse fill="#ffbdb9" stroke="#ffbdb9" stroke-width="3" cx="161.14" cy="-505" rx="77.56" ry="18" style=""/>
<text text-anchor="middle" x="161.14" y="-500.8" font-family="Times,serif" font-size="14.00" style="">createSilicaV2_1</text>
</g>
<!-- SilicaFactory._createSilicaV2_1 -->
<g id="node12" class="node" pointer-events="visible" data-name="SilicaFactory._createSilicaV2_1">

<ellipse fill="#edad56" stroke="#edad56" stroke-width="3" cx="502.96" cy="-451" rx="82.22" ry="18" style=""/>
<text text-anchor="middle" x="502.96" y="-446.8" font-family="Times,serif" font-size="14.00" style="">_createSilicaV2_1</text>
</g>
<!-- SilicaFactory.createSilicaV2_1&#45;&gt;SilicaFactory._createSilicaV2_1 -->
<g id="edge25" class="edge" data-name="SilicaFactory.createSilicaV2_1-&gt;SilicaFactory._createSilicaV2_1">

<path fill="none" stroke="#1bc6a6" stroke-width="2" d="M227.66,-494.59C282.82,-485.82 361.95,-473.25 421.05,-463.86" style=""/>
<polygon fill="#1bc6a6" stroke="#1bc6a6" stroke-width="2" points="421.41,-467.34 430.74,-462.32 420.31,-460.43 421.41,-467.34" style=""/>
</g>
<!-- SilicaFactory.proxyCreateSilicaV2_1 -->
<g id="node11" class="node" pointer-events="visible" data-name="SilicaFactory.proxyCreateSilicaV2_1">

<ellipse fill="#ffbdb9" stroke="#ffbdb9" stroke-width="3" cx="161.14" cy="-451" rx="102.43" ry="18" style=""/>
<text text-anchor="middle" x="161.14" y="-446.8" font-family="Times,serif" font-size="14.00" style="">proxyCreateSilicaV2_1</text>
</g>
<!-- SilicaFactory.proxyCreateSilicaV2_1&#45;&gt;SilicaFactory._createSilicaV2_1 -->
<g id="edge26" class="edge" data-name="SilicaFactory.proxyCreateSilicaV2_1-&gt;SilicaFactory._createSilicaV2_1">

<path fill="none" stroke="#1bc6a6" stroke-width="2" d="M265.01,-451C310,-451 362.45,-451 406.54,-451" style=""/>
<polygon fill="#1bc6a6" stroke="#1bc6a6" stroke-width="2" points="406.32,-454.5 416.32,-451 406.32,-447.5 406.32,-454.5" style=""/>
</g>
<!-- SilicaFactory._createSilicaV2_1&#45;&gt;SilicaFactory._getMiningSwapCollateralRequirement -->
<g id="edge31" class="edge" data-name="SilicaFactory._createSilicaV2_1-&gt;SilicaFactory._getMiningSwapCollateralRequirement">

<path fill="none" stroke="#1bc6a6" stroke-width="2" d="M531.27,-469.1C568.04,-495.1 632.43,-546.67 663.64,-608 712.96,-704.91 623.33,-772.54 699.64,-850 703.36,-853.78 707.39,-857.15 711.67,-860.16" style=""/>
<polygon fill="#1bc6a6" stroke="#1bc6a6" stroke-width="2" points="709.83,-863.14 720.19,-865.35 713.47,-857.16 709.83,-863.14" style=""/>
</g>
<!-- SilicaFactory._createSilicaV2_1&#45;&gt;SilicaFactory._getOracleData -->
<g id="edge30" class="edge" data-name="SilicaFactory._createSilicaV2_1-&gt;SilicaFactory._getOracleData">

<path fill="none" stroke="#1bc6a6" stroke-width="2" d="M524.42,-469.8C558.17,-499.66 628.83,-557.45 699.64,-586 725.25,-596.33 754.61,-602.7 781.38,-606.64" style=""/>
<polygon fill="#1bc6a6" stroke="#1bc6a6" stroke-width="2" points="780.91,-610.11 791.29,-607.98 781.85,-603.18 780.91,-610.11" style=""/>
</g>
<!-- SilicaFactory._createSilicaV2_1&#45;&gt;SilicaFactory.address -->
<g id="edge32" class="edge" data-name="SilicaFactory._createSilicaV2_1-&gt;SilicaFactory.address">

<path fill="none" stroke="#1bc6a6" stroke-width="2" d="M528.73,-469.37C563.4,-496.25 626.3,-549.5 663.64,-608 689.28,-648.17 660.91,-681.24 699.64,-709 731.37,-731.74 986.49,-723.4 1099.16,-718.53" style=""/>
<polygon fill="#1bc6a6" stroke="#1bc6a6" stroke-width="2" points="1099.31,-722.02 1109.15,-718.08 1099,-715.03 1099.31,-722.02" style=""/>
</g>
<!-- SilicaFactory.payable -->
<g id="node22" class="node" pointer-events="visible" data-name="SilicaFactory.payable">

<ellipse fill="#edad56" stroke="#edad56" stroke-width="3" cx="865.16" cy="-343" rx="41.13" ry="18" style=""/>
<text text-anchor="middle" x="865.16" y="-338.8" font-family="Times,serif" font-size="14.00" style="">payable</text>
</g>
<!-- SilicaFactory._createSilicaV2_1&#45;&gt;SilicaFactory.payable -->
<g id="edge27" class="edge" data-name="SilicaFactory._createSilicaV2_1-&gt;SilicaFactory.payable">

<path fill="none" stroke="#1bc6a6" stroke-width="2" d="M586.16,-449.8C612.58,-446.23 640.88,-438.76 663.64,-424 687.85,-408.31 675.4,-385.63 699.64,-370 732.43,-348.86 776.29,-342.49 810.48,-341.21" style=""/>
<polygon fill="#1bc6a6" stroke="#1bc6a6" stroke-width="2" points="810.12,-344.72 820.04,-341.01 809.97,-337.72 810.12,-344.72" style=""/>
</g>
<!-- SilicaFactory.ISilicaV2_1 -->
<g id="node23" class="node" pointer-events="visible" data-name="SilicaFactory.ISilicaV2_1">

<ellipse fill="#edad56" stroke="#edad56" stroke-width="3" cx="865.16" cy="-397" rx="57.91" ry="18" style=""/>
<text text-anchor="middle" x="865.16" y="-392.8" font-family="Times,serif" font-size="14.00" style="">ISilicaV2_1</text>
</g>
<!-- SilicaFactory._createSilicaV2_1&#45;&gt;SilicaFactory.ISilicaV2_1 -->
<g id="edge29" class="edge" data-name="SilicaFactory._createSilicaV2_1-&gt;SilicaFactory.ISilicaV2_1">

<path fill="none" stroke="#1bc6a6" stroke-width="2" d="M573.41,-440.59C638.34,-430.85 734.6,-416.42 798.33,-406.87" style=""/>
<polygon fill="#1bc6a6" stroke="#1bc6a6" stroke-width="2" points="798.66,-410.36 808.03,-405.41 797.62,-403.44 798.66,-410.36" style=""/>
</g>
<!-- SilicaFactory.IERC20 -->
<g id="node24" class="node" pointer-events="visible" data-name="SilicaFactory.IERC20">

<ellipse fill="#edad56" stroke="#edad56" stroke-width="3" cx="865.16" cy="-451" rx="42.88" ry="18" style=""/>
<text text-anchor="middle" x="865.16" y="-446.8" font-family="Times,serif" font-size="14.00" style="">IERC20</text>
</g>
<!-- SilicaFactory._createSilicaV2_1&#45;&gt;SilicaFactory.IERC20 -->
<g id="edge35" class="edge" data-name="SilicaFactory._createSilicaV2_1-&gt;SilicaFactory.IERC20">

<path fill="none" stroke="#1bc6a6" stroke-width="2" d="M586.59,-451C654.56,-451 749.04,-451 808.37,-451" style=""/>
<polygon fill="#1bc6a6" stroke="#1bc6a6" stroke-width="2" points="808.17,-454.5 818.17,-451 808.17,-447.5 808.17,-454.5" style=""/>
</g>
<!-- SilicaFactory.NewSilicaContract -->
<g id="node25" class="node" pointer-events="visible" data-name="SilicaFactory.NewSilicaContract">

<ellipse fill="#edad56" stroke="#edad56" stroke-width="3" cx="865.16" cy="-505" rx="84.53" ry="18" style=""/>
<text text-anchor="middle" x="865.16" y="-500.8" font-family="Times,serif" font-size="14.00" style="">NewSilicaContract</text>
</g>
<!-- SilicaFactory._createSilicaV2_1&#45;&gt;SilicaFactory.NewSilicaContract -->
<g id="edge36" class="edge" data-name="SilicaFactory._createSilicaV2_1-&gt;SilicaFactory.NewSilicaContract">

<path fill="none" stroke="#1bc6a6" stroke-width="2" d="M573.41,-461.41C632.6,-470.29 717.83,-483.06 780.72,-492.49" style=""/>
<polygon fill="#1bc6a6" stroke="#1bc6a6" stroke-width="2" points="779.98,-495.92 790.39,-493.94 781.02,-489 779.98,-495.92" style=""/>
</g>
<!-- Clones.clone -->
<g id="node30" class="node" pointer-events="visible" data-name="Clones.clone">

<ellipse fill="#edad56" stroke="#edad56" stroke-width="3" cx="865.16" cy="-258" rx="31.9" ry="18" style=""/>
<text text-anchor="middle" x="865.16" y="-253.8" font-family="Times,serif" font-size="14.00" style="">clone</text>
</g>
<!-- SilicaFactory._createSilicaV2_1&#45;&gt;Clones.clone -->
<g id="edge28" class="edge" data-name="SilicaFactory._createSilicaV2_1-&gt;Clones.clone">

<path fill="none" stroke="white" stroke-width="2" d="M585.87,-453.61C613.34,-450.52 642.36,-442.38 663.64,-424 702.89,-390.1 663.14,-349.84 699.64,-313 731.46,-280.9 782.5,-267.53 819.3,-261.97" style=""/>
<polygon fill="white" stroke="white" stroke-width="2" points="819.71,-265.45 829.16,-260.65 818.78,-258.51 819.71,-265.45" style=""/>
</g>
<!-- ISilicaV2_1.initialize -->
<g id="node31" class="node" pointer-events="visible" data-name="ISilicaV2_1.initialize">

<ellipse fill="#edad56" stroke="#edad56" stroke-width="3" cx="865.16" cy="-173" rx="44.64" ry="18" style=""/>
<text text-anchor="middle" x="865.16" y="-168.8" font-family="Times,serif" font-size="14.00" style="">initialize</text>
</g>
<!-- SilicaFactory._createSilicaV2_1&#45;&gt;ISilicaV2_1.initialize -->
<g id="edge33" class="edge" data-name="SilicaFactory._createSilicaV2_1-&gt;ISilicaV2_1.initialize">

<path fill="none" stroke="white" stroke-width="2" d="M584.38,-455.42C612.85,-452.76 642.92,-444.43 663.64,-424 726.71,-361.82 641.58,-294.88 699.64,-228 726.37,-197.21 770.83,-183.61 806.8,-177.62" style=""/>
<polygon fill="white" stroke="white" stroke-width="2" points="807.24,-181.09 816.63,-176.18 806.22,-174.17 807.24,-181.09" style=""/>
</g>
<!-- SafeERC20.safeTransferFrom -->
<g id="node33" class="node" pointer-events="visible" data-name="SafeERC20.safeTransferFrom">

<ellipse fill="#edad56" stroke="#edad56" stroke-width="3" cx="865.16" cy="-34" rx="80.43" ry="18" style=""/>
<text text-anchor="middle" x="865.16" y="-29.8" font-family="Times,serif" font-size="14.00" style="">safeTransferFrom</text>
</g>
<!-- SilicaFactory._createSilicaV2_1&#45;&gt;SafeERC20.safeTransferFrom -->
<g id="edge34" class="edge" data-name="SilicaFactory._createSilicaV2_1-&gt;SafeERC20.safeTransferFrom">

<path fill="none" stroke="white" stroke-width="2" d="M583.14,-456.41C612.33,-454.06 643.21,-445.7 663.64,-424 766.28,-314.96 605.76,-205.66 699.64,-89 718.56,-65.5 747.86,-51.97 776.52,-44.2" style=""/>
<polygon fill="white" stroke="white" stroke-width="2" points="777.34,-47.6 786.23,-41.84 775.69,-40.8 777.34,-47.6" style=""/>
</g>
<!-- SilicaFactory.createEthStakingSilicaV2_1 -->
<g id="node13" class="node" pointer-events="visible" data-name="SilicaFactory.createEthStakingSilicaV2_1">

<ellipse fill="#ffbdb9" stroke="#ffbdb9" stroke-width="3" cx="161.14" cy="-397" rx="120.4" ry="18" style=""/>
<text text-anchor="middle" x="161.14" y="-392.8" font-family="Times,serif" font-size="14.00" style="">createEthStakingSilicaV2_1</text>
</g>
<!-- SilicaFactory._createEthStakingSilicaV2_1 -->
<g id="node15" class="node" pointer-events="visible" data-name="SilicaFactory._createEthStakingSilicaV2_1">

<ellipse fill="#edad56" stroke="#edad56" stroke-width="3" cx="502.96" cy="-397" rx="125.06" ry="18" style=""/>
<text text-anchor="middle" x="502.96" y="-392.8" font-family="Times,serif" font-size="14.00" style="">_createEthStakingSilicaV2_1</text>
</g>
<!-- SilicaFactory.createEthStakingSilicaV2_1&#45;&gt;SilicaFactory._createEthStakingSilicaV2_1 -->
<g id="edge37" class="edge" data-name="SilicaFactory.createEthStakingSilicaV2_1-&gt;SilicaFactory._createEthStakingSilicaV2_1">

<path fill="none" stroke="#1bc6a6" stroke-width="2" d="M282.9,-397C308.97,-397 336.72,-397 363.41,-397" style=""/>
<polygon fill="#1bc6a6" stroke="#1bc6a6" stroke-width="2" points="363.38,-400.5 373.38,-397 363.38,-393.5 363.38,-400.5" style=""/>
</g>
<!-- SilicaFactory.proxyCreateEthStakingSilicaV2_1 -->
<g id="node14" class="node" pointer-events="visible" data-name="SilicaFactory.proxyCreateEthStakingSilicaV2_1">

<ellipse fill="#ffbdb9" stroke="#ffbdb9" stroke-width="3" cx="161.14" cy="-343" rx="145.27" ry="18" style=""/>
<text text-anchor="middle" x="161.14" y="-338.8" font-family="Times,serif" font-size="14.00" style="">proxyCreateEthStakingSilicaV2_1</text>
</g>
<!-- SilicaFactory.proxyCreateEthStakingSilicaV2_1&#45;&gt;SilicaFactory._createEthStakingSilicaV2_1 -->
<g id="edge38" class="edge" data-name="SilicaFactory.proxyCreateEthStakingSilicaV2_1-&gt;SilicaFactory._createEthStakingSilicaV2_1">

<path fill="none" stroke="#1bc6a6" stroke-width="2" d="M255.44,-357.83C300.79,-365.03 355.35,-373.7 401.6,-381.05" style=""/>
<polygon fill="#1bc6a6" stroke="#1bc6a6" stroke-width="2" points="400.99,-384.5 411.42,-382.61 402.09,-377.59 400.99,-384.5" style=""/>
</g>
<!-- SilicaFactory._createEthStakingSilicaV2_1&#45;&gt;SilicaFactory._getEthStakingCollateralRequirement -->
<g id="edge43" class="edge" data-name="SilicaFactory._createEthStakingSilicaV2_1-&gt;SilicaFactory._getEthStakingCollateralRequirement">

<path fill="none" stroke="#1bc6a6" stroke-width="2" d="M627.18,-400.58C640.93,-405.69 653.58,-413.2 663.64,-424 720.25,-484.78 642.89,-735.36 699.64,-796 703.7,-800.34 708.17,-804.15 712.95,-807.5" style=""/>
<polygon fill="#1bc6a6" stroke="#1bc6a6" stroke-width="2" points="710.92,-810.37 721.29,-812.54 714.54,-804.38 710.92,-810.37" style=""/>
</g>
<!-- SilicaFactory._createEthStakingSilicaV2_1&#45;&gt;SilicaFactory._getOracleEthStakingData -->
<g id="edge42" class="edge" data-name="SilicaFactory._createEthStakingSilicaV2_1-&gt;SilicaFactory._getOracleEthStakingData">

<path fill="none" stroke="#1bc6a6" stroke-width="2" d="M624.19,-402.59C638.59,-407.34 652.22,-414.21 663.64,-424 702.07,-456.91 661.14,-499.18 699.64,-532 710.72,-541.44 723.79,-548.21 737.64,-553" style=""/>
<polygon fill="#1bc6a6" stroke="#1bc6a6" stroke-width="2" points="736.5,-556.31 747.09,-555.85 738.52,-549.61 736.5,-556.31" style=""/>
</g>
<!-- SilicaFactory._createEthStakingSilicaV2_1&#45;&gt;SilicaFactory.address -->
<g id="edge45" class="edge" data-name="SilicaFactory._createEthStakingSilicaV2_1-&gt;SilicaFactory.address">

<path fill="none" stroke="#1bc6a6" stroke-width="2" d="M626.81,-400.93C640.62,-405.98 653.39,-413.38 663.64,-424 747.74,-511.09 610.39,-612.21 699.64,-694 713.22,-706.44 1012.29,-708.05 1030.67,-709 1053.24,-710.16 1078.16,-711.57 1099.53,-712.82" style=""/>
<polygon fill="#1bc6a6" stroke="#1bc6a6" stroke-width="2" points="1099.12,-716.3 1109.31,-713.4 1099.53,-709.32 1099.12,-716.3" style=""/>
</g>
<!-- SilicaFactory._createEthStakingSilicaV2_1&#45;&gt;SilicaFactory.payable -->
<g id="edge39" class="edge" data-name="SilicaFactory._createEthStakingSilicaV2_1-&gt;SilicaFactory.payable">

<path fill="none" stroke="#1bc6a6" stroke-width="2" d="M593.92,-383.51C662.74,-373.2 755.22,-359.33 812.2,-350.79" style=""/>
<polygon fill="#1bc6a6" stroke="#1bc6a6" stroke-width="2" points="812.48,-354.29 821.85,-349.34 811.44,-347.36 812.48,-354.29" style=""/>
</g>
<!-- SilicaFactory._createEthStakingSilicaV2_1&#45;&gt;SilicaFactory.ISilicaV2_1 -->
<g id="edge41" class="edge" data-name="SilicaFactory._createEthStakingSilicaV2_1-&gt;SilicaFactory.ISilicaV2_1">

<path fill="none" stroke="#1bc6a6" stroke-width="2" d="M629.43,-397C684.25,-397 746.52,-397 793.14,-397" style=""/>
<polygon fill="#1bc6a6" stroke="#1bc6a6" stroke-width="2" points="793.14,-400.5 803.14,-397 793.14,-393.5 793.14,-400.5" style=""/>
</g>
<!-- SilicaFactory._createEthStakingSilicaV2_1&#45;&gt;SilicaFactory.IERC20 -->
<g id="edge48" class="edge" data-name="SilicaFactory._createEthStakingSilicaV2_1-&gt;SilicaFactory.IERC20">

<path fill="none" stroke="#1bc6a6" stroke-width="2" d="M593.92,-410.49C662.16,-420.72 753.67,-434.44 810.75,-442.99" style=""/>
<polygon fill="#1bc6a6" stroke="#1bc6a6" stroke-width="2" points="810.04,-446.43 820.45,-444.45 811.08,-439.5 810.04,-446.43" style=""/>
</g>
<!-- SilicaFactory._createEthStakingSilicaV2_1&#45;&gt;SilicaFactory.NewSilicaContract -->
<g id="edge49" class="edge" data-name="SilicaFactory._createEthStakingSilicaV2_1-&gt;SilicaFactory.NewSilicaContract">

<path fill="none" stroke="#1bc6a6" stroke-width="2" d="M618.62,-404.66C634.55,-409 650.08,-415.21 663.64,-424 687.85,-439.69 675.4,-462.37 699.64,-478 719.45,-490.77 743.3,-498.15 766.61,-502.27" style=""/>
<polygon fill="#1bc6a6" stroke="#1bc6a6" stroke-width="2" points="766.08,-505.73 776.49,-503.79 767.14,-498.81 766.08,-505.73" style=""/>
</g>
<!-- SilicaFactory._createEthStakingSilicaV2_1&#45;&gt;Clones.clone -->
<g id="edge40" class="edge" data-name="SilicaFactory._createEthStakingSilicaV2_1-&gt;Clones.clone">

<path fill="none" stroke="white" stroke-width="2" d="M544.03,-378.64C583.31,-360.92 645.06,-333.8 699.64,-313 741.44,-297.07 790.11,-281.11 823.62,-270.52" style=""/>
<polygon fill="white" stroke="white" stroke-width="2" points="824.29,-273.98 832.78,-267.64 822.19,-267.3 824.29,-273.98" style=""/>
</g>
<!-- SilicaFactory._createEthStakingSilicaV2_1&#45;&gt;ISilicaV2_1.initialize -->
<g id="edge46" class="edge" data-name="SilicaFactory._createEthStakingSilicaV2_1-&gt;ISilicaV2_1.initialize">

<path fill="none" stroke="white" stroke-width="2" d="M521.24,-377.78C553.25,-343.23 625.33,-270.3 699.64,-228 734.8,-207.99 778.36,-193.83 811.83,-184.9" style=""/>
<polygon fill="white" stroke="white" stroke-width="2" points="812.38,-188.37 821.19,-182.48 810.63,-181.59 812.38,-188.37" style=""/>
</g>
<!-- ISilicaV2_1.getDecimals -->
<g id="node32" class="node" pointer-events="visible" data-name="ISilicaV2_1.getDecimals">

<ellipse fill="#edad56" stroke="#edad56" stroke-width="3" cx="865.16" cy="-119" rx="59.11" ry="18" style=""/>
<text text-anchor="middle" x="865.16" y="-114.8" font-family="Times,serif" font-size="14.00" style="">getDecimals</text>
</g>
<!-- SilicaFactory._createEthStakingSilicaV2_1&#45;&gt;ISilicaV2_1.getDecimals -->
<g id="edge44" class="edge" data-name="SilicaFactory._createEthStakingSilicaV2_1-&gt;ISilicaV2_1.getDecimals">

<path fill="none" stroke="white" stroke-width="2" d="M512.73,-377.61C535.67,-329.37 602.47,-203.67 699.64,-146 727.19,-129.65 761.67,-122.39 791.94,-119.42" style=""/>
<polygon fill="white" stroke="white" stroke-width="2" points="791.92,-122.93 801.61,-118.64 791.36,-115.95 791.92,-122.93" style=""/>
</g>
<!-- SilicaFactory._createEthStakingSilicaV2_1&#45;&gt;SafeERC20.safeTransferFrom -->
<g id="edge47" class="edge" data-name="SilicaFactory._createEthStakingSilicaV2_1-&gt;SafeERC20.safeTransferFrom">

<path fill="none" stroke="white" stroke-width="2" d="M510.78,-377.92C530.92,-324.24 595.35,-170.57 699.64,-89 724.55,-69.52 756.7,-56.77 785.97,-48.5" style=""/>
<polygon fill="white" stroke="white" stroke-width="2" points="786.61,-51.95 795.37,-46 784.81,-45.19 786.61,-51.95" style=""/>
</g>
<!-- key -->
<g id="node34" class="node" pointer-events="visible" data-name="key">

<polygon fill="#edad56" stroke="none" stroke-width="3" points="226.14,-1072 96.14,-1072 96.14,-984 226.14,-984 226.14,-1072" style=""/>
<text text-anchor="start" x="145.77" y="-1053.4" font-family="Times,serif" font-size="14.00" style="">Internal Call</text>
<text text-anchor="start" x="141.88" y="-1033.4" font-family="Times,serif" font-size="14.00" style="">External Call</text>
<text text-anchor="start" x="119.34" y="-1013.4" font-family="Times,serif" font-size="14.00" style="">Defined Contract</text>
<text text-anchor="start" x="105.74" y="-993.4" font-family="Times,serif" font-size="14.00" style="">Undefined Contract</text>
</g>
<!-- key2 -->
<g id="node35" class="node" pointer-events="visible" data-name="key2">

<polygon fill="#edad56" stroke="none" stroke-width="3" points="529.96,-1072 475.96,-1072 475.96,-984 529.96,-984 529.96,-1072" style=""/>
<text text-anchor="start" x="492.96" y="-1053.4" font-family="Times,serif" font-size="14.00" style="">   </text>
<text text-anchor="start" x="492.96" y="-1033.4" font-family="Times,serif" font-size="14.00" style="">   </text>
<polygon fill="#445773" stroke="none" points="490.96,-1008 490.96,-1028 515.96,-1028 515.96,-1008 490.96,-1008" style=""/>
<text text-anchor="start" x="492.96" y="-1013.4" font-family="Times,serif" font-size="14.00" style="">   </text>
<polygon fill="none" stroke="#e8726d" points="492.96,-990 492.96,-1006 513.96,-1006 513.96,-990 492.96,-990" style=""/>
</g>
<!-- key&#45;&gt;key2 -->
<g id="edge50" class="edge" data-name="key-&gt;key2">

<path fill="none" stroke="#1bc6a6" stroke-width="2" d="M219.14,-1058C335.15,-1058 367.3,-1058 477.25,-1058" style=""/>
<polygon fill="#1bc6a6" stroke="#1bc6a6" stroke-width="2" points="476.93,-1061.5 486.93,-1058 476.93,-1054.5 476.93,-1061.5" style=""/>
</g>
<!-- key&#45;&gt;key2 -->
<g id="edge51" class="edge" data-name="key-&gt;key2">

<path fill="none" stroke="white" stroke-width="2" d="M219.14,-1038C335.15,-1038 367.3,-1038 477.25,-1038" style=""/>
<polygon fill="white" stroke="white" stroke-width="2" points="476.93,-1041.5 486.93,-1038 476.93,-1034.5 476.93,-1041.5" style=""/>
</g>
</g>
</svg>